<?xml version="1.0" standalone="no"?>
<!DOCTYPE svg PUBLIC "-//W3C//DTD SVG 20010904//EN"
 "http://www.w3.org/TR/2001/REC-SVG-20010904/DTD/svg10.dtd">
<svg version="1.0" xmlns="http://www.w3.org/2000/svg"
 width="500.000000pt" height="500.000000pt" viewBox="0 0 500.000000 500.000000"
 preserveAspectRatio="xMidYMid meet">
<metadata>
Created by potrace 1.14, written by Peter Selinger 2001-2017
</metadata>
<g transform="translate(0.000000,500.000000) scale(0.100000,-0.100000)"
fill="#000000" stroke="none">
<path d="M2450 3682 c-79 -6 -250 -43 -307 -67 -89 -36 -236 -121 -253 -146
-3 -4 -23 -20 -44 -34 -33 -22 -43 -25 -63 -16 -35 16 -109 13 -145 -5 -57
-30 -84 -73 -93 -148 -4 -35 0 -54 25 -102 27 -50 30 -62 20 -84 -18 -38 -40
-112 -40 -135 0 -19 6 -20 87 -18 103 3 113 6 113 32 0 45 85 185 163 267 228
241 556 324 872 219 131 -43 207 -93 342 -224 100 -96 191 -327 173 -434 -8
-43 -17 -55 -45 -60 -11 -2 -27 -7 -35 -10 -8 -4 -26 -9 -40 -11 -14 -3 -65
-17 -115 -31 -105 -31 -176 -51 -335 -95 -63 -17 -140 -39 -170 -47 -30 -8
-59 -16 -65 -18 -23 -5 -75 -19 -155 -41 -86 -23 -99 -26 -180 -43 -25 -5
-202 -10 -393 -10 -310 -1 -352 -3 -378 -18 -33 -20 -47 -53 -44 -104 4 -48
20 -76 55 -94 24 -12 85 -15 363 -15 347 0 357 1 467 46 8 4 24 8 35 10 30 5
60 12 60 14 0 1 7 3 15 5 40 9 156 40 250 66 58 17 121 34 140 40 47 13 321
87 390 105 141 38 286 89 298 105 7 10 18 24 25 31 12 13 34 70 43 110 10 48
4 186 -9 238 -15 55 -39 123 -60 170 -14 29 -68 123 -77 130 -3 3 -18 22 -33
43 -80 107 -244 236 -377 295 -128 58 -342 95 -480 84z"/>
<path d="M2498 3215 c-2 -1 -25 -5 -53 -8 -62 -7 -150 -37 -210 -73 -103 -60
-237 -223 -260 -317 l-7 -27 -272 0 -271 0 -36 -25 c-72 -48 -59 -166 21 -197
22 -8 157 -11 521 -9 107 1 118 3 141 24 14 13 28 41 32 62 4 22 23 72 42 111
72 152 198 245 342 253 121 6 211 -29 294 -115 28 -29 61 -54 73 -57 52 -9
115 45 115 100 0 18 -32 76 -53 97 -83 82 -190 144 -282 164 -51 11 -132 21
-137 17z"/>
<path d="M3414 2449 c-41 -22 -83 -65 -95 -96 -5 -13 -9 -48 -9 -77 0 -63 25
-106 87 -150 35 -24 51 -29 94 -27 92 3 151 47 182 137 12 33 12 47 0 94 -16
63 -39 92 -99 120 -50 25 -115 24 -160 -1z"/>
<path d="M2899 2286 c-25 -12 -33 -26 -74 -120 -41 -93 -134 -174 -220 -191
-74 -14 -183 -6 -237 16 -29 13 -55 26 -58 29 -16 22 -60 30 -159 30 -61 0
-111 -2 -111 -5 0 -22 94 -128 157 -177 93 -73 262 -107 417 -84 48 7 128 36
138 50 4 6 8 7 8 3 0 -5 20 6 45 24 159 114 271 342 201 408 -27 26 -75 34
-107 17z"/>
<path d="M1560 1985 c79 -275 332 -540 603 -630 161 -53 304 -69 471 -52 38 4
72 10 76 12 4 3 25 7 46 11 22 3 44 9 49 12 6 4 15 7 20 9 6 1 20 4 33 7 37 8
124 50 186 90 31 20 61 36 67 36 6 0 7 5 4 10 -3 6 -1 10 4 10 27 0 163 136
212 213 52 80 45 129 -20 161 -46 22 -78 9 -127 -52 -47 -58 -194 -202 -207
-202 -5 0 -21 -9 -36 -19 -39 -28 -164 -76 -246 -94 -72 -17 -310 -21 -350 -7
-11 4 -38 13 -60 19 -81 24 -171 66 -231 107 -118 80 -237 227 -286 354 l-26
65 -100 3 -101 3 19 -66z"/>
</g>
</svg>
